<svg id="visual" viewBox="0 0 1920 1080" width="1920" height="1080" xmlns="http://www.w3.org/2000/svg" xmlns:xlink="http://www.w3.org/1999/xlink" version="1.1"><rect x="0" y="0" width="1920" height="1080" fill="#001220"></rect><defs><linearGradient id="grad1_0" x1="43.8%" y1="0%" x2="100%" y2="100%"><stop offset="14.444444444444446%" stop-color="#001220" stop-opacity="1"></stop><stop offset="85.55555555555554%" stop-color="#001220" stop-opacity="1"></stop></linearGradient></defs><defs><linearGradient id="grad2_0" x1="0%" y1="0%" x2="56.3%" y2="100%"><stop offset="14.444444444444446%" stop-color="#001220" stop-opacity="1"></stop><stop offset="85.55555555555554%" stop-color="#001220" stop-opacity="1"></stop></linearGradient></defs><g transform="translate(1920, 0)"><path d="M0 648C-64.5 580.5 -129.1 512.9 -198.6 479.5C-268.2 446 -342.8 446.7 -415.8 415.8C-488.8 384.9 -560.2 322.5 -598.7 248C-637.1 173.4 -642.6 86.7 -648 0L0 0Z" fill="#FBAE3C"></path></g><g transform="translate(0, 1080)"><path d="M0 -648C84.1 -638 168.2 -628 248 -598.7C327.8 -569.4 403.3 -520.9 457.5 -457.5C511.7 -394.1 544.6 -316 572.8 -237.3C601 -158.5 624.5 -79.3 648 0L0 0Z" fill="#FBAE3C"></path></g></svg>