<svg id="visual" viewBox="0 0 1920 1080" width="1920" height="1080" xmlns="http://www.w3.org/2000/svg" xmlns:xlink="http://www.w3.org/1999/xlink" version="1.1"><rect x="0" y="0" width="1920" height="1080" fill="#001220"></rect><defs><linearGradient id="grad1_0" x1="43.8%" y1="0%" x2="100%" y2="100%"><stop offset="14.444444444444446%" stop-color="#001220" stop-opacity="1"></stop><stop offset="85.55555555555554%" stop-color="#001220" stop-opacity="1"></stop></linearGradient></defs><defs><linearGradient id="grad2_0" x1="0%" y1="0%" x2="56.3%" y2="100%"><stop offset="14.444444444444446%" stop-color="#001220" stop-opacity="1"></stop><stop offset="85.55555555555554%" stop-color="#001220" stop-opacity="1"></stop></linearGradient></defs><g transform="translate(1920, 0)"><path d="M0 648C-59.2 581.7 -118.4 515.4 -205.1 495.2C-291.8 475 -406 501 -458.2 458.2C-510.4 415.5 -500.7 304 -522 216.2C-543.3 128.4 -595.6 64.2 -648 0L0 0Z" fill="#FBAE3C"></path></g><g transform="translate(0, 1080)"><path d="M0 -648C95.5 -647.7 191 -647.4 246.4 -595C301.9 -542.6 317.2 -438.1 378.3 -378.3C439.4 -318.6 546.1 -303.6 598.7 -248C651.2 -192.4 649.6 -96.2 648 0L0 0Z" fill="#FBAE3C"></path></g></svg>