<svg id="visual" viewBox="0 0 1920 1080" width="1920" height="1080" xmlns="http://www.w3.org/2000/svg" xmlns:xlink="http://www.w3.org/1999/xlink" version="1.1"><rect x="0" y="0" width="1920" height="1080" fill="#001220"></rect><defs><linearGradient id="grad1_0" x1="43.8%" y1="0%" x2="100%" y2="100%"><stop offset="14.444444444444446%" stop-color="#001220" stop-opacity="1"></stop><stop offset="85.55555555555554%" stop-color="#001220" stop-opacity="1"></stop></linearGradient></defs><defs><linearGradient id="grad2_0" x1="0%" y1="0%" x2="56.3%" y2="100%"><stop offset="14.444444444444446%" stop-color="#001220" stop-opacity="1"></stop><stop offset="85.55555555555554%" stop-color="#001220" stop-opacity="1"></stop></linearGradient></defs><g transform="translate(1920, 0)"><path d="M0 648C-91.1 638.1 -182.2 628.2 -239.6 578.3C-296.9 528.5 -320.5 438.8 -383.3 383.3C-446 327.7 -548 306.2 -598.7 248C-649.3 189.8 -648.7 94.9 -648 0L0 0Z" fill="#FBAE3C"></path></g><g transform="translate(0, 1080)"><path d="M0 -648C60.9 -586.5 121.9 -525 208.9 -504.4C296 -483.9 409.3 -504.2 458.2 -458.2C507.2 -412.2 491.8 -299.8 512.8 -212.4C533.7 -125 590.8 -62.5 648 0L0 0Z" fill="#FBAE3C"></path></g></svg>