<svg id="visual" viewBox="0 0 1920 1080" width="1920" height="1080" xmlns="http://www.w3.org/2000/svg" xmlns:xlink="http://www.w3.org/1999/xlink" version="1.1"><rect x="0" y="0" width="1920" height="1080" fill="#001220"></rect><defs><linearGradient id="grad1_0" x1="43.8%" y1="0%" x2="100%" y2="100%"><stop offset="14.444444444444446%" stop-color="#001220" stop-opacity="1"></stop><stop offset="85.55555555555554%" stop-color="#001220" stop-opacity="1"></stop></linearGradient></defs><defs><linearGradient id="grad2_0" x1="0%" y1="0%" x2="56.3%" y2="100%"><stop offset="14.444444444444446%" stop-color="#001220" stop-opacity="1"></stop><stop offset="85.55555555555554%" stop-color="#001220" stop-opacity="1"></stop></linearGradient></defs><g transform="translate(1920, 0)"><path d="M0 648C-80.9 624.4 -161.7 600.7 -235 567.3C-308.2 533.8 -373.8 490.5 -437.7 437.7C-501.6 384.9 -563.9 322.5 -598.7 248C-633.4 173.4 -640.7 86.7 -648 0L0 0Z" fill="#FBAE3C"></path></g><g transform="translate(0, 1080)"><path d="M0 -648C85.2 -639.7 170.3 -631.4 248 -598.7C325.6 -565.9 395.8 -508.6 441.9 -441.9C488.1 -375.2 510.1 -299.1 540.5 -223.9C570.8 -148.6 609.4 -74.3 648 0L0 0Z" fill="#FBAE3C"></path></g></svg>