<svg id="visual" viewBox="0 0 1920 1080" width="1920" height="1080" xmlns="http://www.w3.org/2000/svg" xmlns:xlink="http://www.w3.org/1999/xlink" version="1.1"><rect x="0" y="0" width="1920" height="1080" fill="#001220"></rect><defs><linearGradient id="grad1_0" x1="43.8%" y1="0%" x2="100%" y2="100%"><stop offset="14.444444444444446%" stop-color="#001220" stop-opacity="1"></stop><stop offset="85.55555555555554%" stop-color="#001220" stop-opacity="1"></stop></linearGradient></defs><defs><linearGradient id="grad2_0" x1="0%" y1="0%" x2="56.3%" y2="100%"><stop offset="14.444444444444446%" stop-color="#001220" stop-opacity="1"></stop><stop offset="85.55555555555554%" stop-color="#001220" stop-opacity="1"></stop></linearGradient></defs><g transform="translate(1920, 0)"><path d="M0 648C-68.6 599.5 -137.2 551.1 -218.1 526.6C-299 502.2 -392.1 501.7 -458.2 458.2C-524.3 414.7 -563.2 328.1 -590.4 244.5C-617.5 161 -632.7 80.5 -648 0L0 0Z" fill="#FBAE3C"></path></g><g transform="translate(0, 1080)"><path d="M0 -648C82.6 -626.1 165.2 -604.2 235 -567.3C304.8 -530.4 361.8 -478.5 425.7 -425.7C489.6 -372.9 560.5 -319.1 598.7 -248C636.9 -176.9 642.4 -88.4 648 0L0 0Z" fill="#FBAE3C"></path></g></svg>